<?xml version="1.0" standalone="no"?>
<!DOCTYPE svg PUBLIC "-//W3C//DTD SVG 20010904//EN"
 "http://www.w3.org/TR/2001/REC-SVG-20010904/DTD/svg10.dtd">
<svg version="1.0" xmlns="http://www.w3.org/2000/svg"
 width="570.000000pt" height="570.000000pt" viewBox="0 0 570.000000 570.000000"
 preserveAspectRatio="xMidYMid meet">
<metadata>
Created by potrace 1.11, written by Peter Selinger 2001-2013
</metadata>
<g transform="translate(0.000000,570.000000) scale(0.100000,-0.100000)"
fill="#000000" stroke="none">
<path d="M2986 5465 c-3 -8 -16 -15 -30 -15 -14 0 -28 -5 -32 -11 -4 -7 -27
-10 -61 -7 -36 3 -73 -1 -107 -13 -71 -23 -214 -19 -233 7 -14 19 -75 24 -81
6 -2 -7 -15 -9 -31 -6 -37 8 -108 -13 -129 -37 -21 -24 -29 -24 -37 1 -5 17
-12 19 -46 14 -26 -4 -39 -3 -39 5 0 18 -48 13 -67 -8 -16 -16 -65 -29 -125
-34 -10 -1 -18 -4 -18 -7 0 -3 -30 -5 -67 -6 -41 0 -68 -5 -71 -12 -2 -7 -10
-12 -18 -12 -7 0 -19 -9 -26 -20 -13 -21 -38 -27 -38 -10 0 18 -49 11 -70 -10
-11 -11 -29 -20 -41 -20 -20 0 -67 -28 -97 -57 -7 -7 -14 -23 -16 -36 -4 -38
-16 -49 -49 -44 -33 4 -97 -17 -97 -32 0 -21 -33 -42 -56 -37 -13 4 -24 2 -24
-3 0 -13 -46 -19 -65 -9 -17 10 -55 -14 -55 -34 0 -13 -42 -47 -57 -48 -7 0
-13 -6 -13 -14 0 -16 -21 -26 -56 -26 -15 0 -24 -6 -24 -15 0 -8 -7 -15 -15
-15 -16 0 -21 -15 -7 -24 4 -2 6 -25 4 -49 -3 -34 -7 -44 -18 -40 -21 8 -57
-4 -81 -26 -18 -17 -21 -31 -21 -87 0 -71 -7 -84 -50 -84 -12 0 -25 -7 -28
-15 -4 -8 -12 -15 -20 -15 -19 0 -18 -19 1 -26 24 -9 17 -24 -10 -24 -18 0
-28 -7 -34 -23 -5 -13 -23 -30 -40 -37 -18 -7 -32 -20 -32 -31 -1 -11 -2 -23
-3 -29 0 -5 -20 -28 -44 -50 -23 -22 -42 -49 -42 -60 0 -15 -13 -27 -49 -42
-51 -23 -97 -77 -87 -103 8 -22 -48 -149 -81 -183 -17 -17 -17 -38 0 -54 15
-14 12 -48 -10 -96 -8 -18 -12 -40 -9 -48 8 -20 -3 -44 -20 -44 -21 0 -17 -17
7 -34 l22 -15 -27 -7 c-14 -3 -26 -10 -26 -14 0 -8 -38 -23 -52 -21 -4 0 -5
-13 -1 -29 5 -26 3 -30 -16 -30 -25 0 -27 -9 -4 -25 16 -12 16 -14 0 -39 -10
-15 -15 -30 -12 -35 2 -5 -2 -12 -11 -15 -9 -4 -14 -13 -10 -21 3 -8 1 -15 -3
-15 -5 0 -7 -39 -5 -87 2 -61 -1 -94 -10 -108 -16 -24 -19 -85 -4 -85 6 0 7
-11 3 -27 -4 -16 -8 -40 -9 -56 -1 -15 -12 -34 -24 -43 -13 -9 -19 -20 -15
-27 4 -7 6 -20 5 -29 -2 -10 2 -18 7 -18 15 0 14 -19 -2 -50 -19 -38 -15 -259
5 -271 15 -8 14 -69 -2 -69 -4 0 -10 -9 -13 -20 -3 -11 -1 -20 4 -20 5 0 7
-11 3 -25 -5 -21 -3 -24 12 -19 11 4 24 11 31 16 9 7 12 -1 11 -31 0 -22 -4
-38 -9 -35 -5 3 -9 1 -9 -5 0 -5 5 -13 10 -16 6 -4 8 -11 4 -16 -3 -6 3 -17
15 -25 19 -14 19 -17 6 -37 -16 -26 -10 -67 11 -67 22 0 16 -36 -10 -65 -35
-38 -39 -84 -9 -109 81 -71 91 -86 86 -129 -3 -23 -14 -61 -24 -85 -17 -40
-17 -44 -1 -62 9 -11 22 -20 29 -20 8 0 13 -12 13 -30 0 -16 4 -30 9 -30 6 0
9 -9 8 -20 -1 -11 -4 -20 -7 -20 -16 0 -2 -41 20 -60 13 -11 25 -31 27 -43 2
-12 17 -35 33 -52 34 -35 37 -51 14 -76 -14 -16 -14 -19 0 -42 10 -15 14 -34
10 -53 -4 -24 0 -36 24 -60 16 -17 35 -46 41 -65 20 -58 82 -115 113 -104 23
9 98 -84 98 -121 0 -8 6 -14 13 -11 6 2 24 -6 39 -19 15 -12 31 -24 36 -26 4
-1 19 -23 33 -48 22 -41 28 -45 66 -48 36 -3 43 -7 58 -38 9 -19 27 -41 41
-50 14 -10 24 -26 24 -40 0 -17 4 -22 15 -18 10 4 15 0 15 -11 0 -11 5 -15 16
-11 8 3 13 2 10 -3 -3 -4 7 -22 23 -40 l28 -31 12 27 13 28 23 -30 c13 -16 22
-31 20 -33 -2 -2 4 -12 13 -21 12 -12 21 -15 29 -8 17 12 43 2 43 -18 0 -21
17 -19 25 4 8 25 46 17 83 -19 23 -22 37 -27 75 -26 26 1 47 5 47 9 0 12 42
-2 63 -22 24 -20 77 -24 77 -4 0 10 5 9 21 -6 16 -15 27 -18 45 -11 18 7 26 5
34 -8 9 -15 10 -15 16 6 l6 22 25 -24 c19 -19 32 -24 54 -19 21 4 30 1 35 -11
5 -12 10 -14 19 -6 9 8 14 5 18 -10 5 -20 27 -29 27 -11 0 6 12 6 31 1 16 -5
36 -7 42 -4 7 2 33 -9 59 -26 47 -31 74 -34 102 -11 11 9 30 11 66 6 41 -6 50
-10 50 -27 0 -13 5 -18 14 -15 10 4 16 -2 18 -16 2 -15 9 -21 21 -19 10 2 17
-3 17 -13 0 -11 7 -14 23 -11 77 16 96 16 141 -5 54 -23 72 -20 86 16 11 30
25 31 68 5 42 -26 56 -25 86 5 24 24 56 34 56 17 0 -28 203 -40 219 -13 7 10
23 12 69 6 68 -8 132 7 132 31 0 10 12 14 41 14 44 0 74 12 102 42 15 15 27
18 69 13 28 -3 55 -8 59 -11 5 -2 17 1 28 8 17 11 23 10 34 -6 10 -13 16 -15
21 -8 4 7 4 17 1 22 -3 6 3 10 14 10 14 0 21 6 21 19 0 26 19 31 73 19 40 -8
48 -7 66 11 12 12 32 21 46 21 16 0 25 6 25 15 0 8 5 15 10 15 6 0 10 6 8 13
-4 20 57 77 82 77 12 0 33 9 46 19 21 16 30 18 62 9 20 -6 45 -14 55 -20 18
-9 47 9 47 30 0 5 22 28 49 50 35 30 59 42 81 42 20 0 29 4 24 11 -3 6 -1 15
7 19 7 5 13 28 14 55 0 25 5 49 11 53 6 4 13 14 16 23 4 9 20 19 37 22 19 4
31 13 31 22 0 9 7 18 15 21 8 4 15 15 15 25 0 10 5 19 11 19 5 0 7 5 4 10 -4
7 11 9 45 6 39 -4 52 -2 57 10 3 8 22 23 43 34 40 20 53 40 44 65 -4 9 0 15 9
15 8 0 18 11 21 25 4 14 13 25 21 25 18 0 20 17 4 22 -19 6 0 48 26 58 17 7
26 21 33 57 6 27 18 52 28 58 29 16 75 62 72 71 -10 35 92 114 147 114 26 0
33 3 29 15 -4 10 0 15 16 15 16 0 20 4 16 18 -11 33 11 112 38 141 30 31 33
53 11 75 -14 13 -13 16 7 30 19 14 21 19 10 36 -17 28 -15 40 8 40 11 0 24 8
27 18 4 9 17 25 29 34 12 10 24 34 27 55 4 21 14 49 23 62 14 19 23 22 50 18
25 -4 34 -2 34 9 0 8 8 14 19 14 13 0 18 8 19 28 0 15 3 38 5 52 3 14 6 28 6
31 1 4 17 24 36 45 33 38 38 69 13 85 -5 3 9 22 32 41 39 32 41 37 30 58 -15
27 -21 130 -10 145 5 6 11 27 15 47 6 30 3 40 -14 54 -31 27 -26 37 24 57 41
17 45 22 45 53 0 21 6 37 14 40 21 8 25 25 13 54 -5 14 -11 51 -12 83 -2 44 2
62 17 79 11 12 16 29 12 37 -3 9 -8 49 -9 90 -2 45 -8 76 -15 81 -9 6 -10 16
-2 41 18 59 22 97 10 101 -10 4 -12 41 -8 130 1 20 11 46 22 58 16 17 17 24 8
35 -9 11 -9 15 -1 15 6 0 11 7 11 15 0 8 -6 15 -14 15 -16 0 -66 62 -66 82 0
7 -7 33 -16 58 -8 24 -13 51 -11 60 2 9 -4 22 -15 29 -14 9 -16 16 -8 31 14
26 13 29 -10 23 -25 -7 -42 33 -42 99 0 37 -6 54 -28 77 -15 17 -32 31 -37 31
-14 0 -24 40 -17 67 4 14 -2 29 -16 43 l-23 23 -17 -23 -17 -23 -9 29 c-4 16
-8 34 -8 39 -1 15 -34 45 -50 45 -9 0 -12 7 -9 20 4 14 0 20 -10 20 -20 0 -41
36 -31 52 15 23 13 58 -2 58 -21 0 -29 27 -13 47 13 14 11 16 -13 11 -19 -4
-28 -1 -28 8 0 10 -9 12 -29 8 -33 -7 -40 1 -46 53 -3 25 -15 47 -34 65 -17
15 -37 40 -46 57 -8 17 -22 32 -30 32 -40 4 -65 19 -65 40 0 10 -6 19 -14 19
-7 0 -16 8 -19 19 -3 12 -17 20 -43 25 -31 5 -45 15 -66 46 -17 24 -36 40 -48
40 -10 0 -24 8 -29 19 -12 21 -55 33 -69 19 -7 -7 -12 -2 -17 11 -3 12 -11 21
-17 21 -6 0 -8 3 -5 6 4 4 -3 23 -14 43 -20 36 -67 71 -96 71 -9 0 -31 9 -49
21 -30 18 -38 19 -71 8 -21 -7 -42 -17 -48 -21 -19 -16 -45 -7 -78 27 -19 19
-43 35 -55 35 -11 0 -24 5 -27 10 -4 6 -11 8 -16 5 -17 -11 -49 6 -64 35 -9
18 -21 27 -29 24 -8 -3 -17 -1 -21 5 -12 21 -25 11 -25 -21 0 -29 -1 -30 -18
-15 -10 10 -24 17 -30 17 -7 0 -12 3 -12 8 0 10 -50 32 -72 32 -11 0 -32 -7
-49 -16 -17 -8 -39 -12 -51 -8 -47 15 -173 19 -268 9 -89 -10 -178 -4 -188 12
-4 6 -20 17 -36 23 -23 8 -34 7 -52 -5 -14 -9 -25 -11 -29 -5 -3 6 -16 10 -29
10 -15 0 -27 9 -34 26 -7 14 -17 22 -22 19 -6 -4 -17 -2 -24 4 -10 9 -15 8
-20 -4z m1685 -1260 c114 -14 236 -43 267 -63 48 -32 -115 -116 -250 -129 -75
-7 -90 -16 -57 -34 56 -30 145 -132 186 -214 11 -22 32 -74 46 -115 86 -248
76 -534 -34 -990 -46 -191 -130 -400 -229 -570 -94 -163 -277 -381 -444 -528
-95 -85 -271 -211 -381 -274 -60 -35 -341 -176 -365 -183 -14 -4 -43 -16 -65
-26 -143 -65 -411 -142 -630 -181 -113 -19 -164 -22 -385 -22 -214 0 -278 4
-400 22 -227 36 -379 78 -530 149 -130 60 -282 195 -350 309 -45 76 -46 124
-3 214 18 36 35 77 38 93 4 15 11 30 16 32 8 5 70 15 329 50 296 40 572 102
806 180 395 132 752 303 1044 498 90 61 224 159 240 177 3 3 28 23 55 45 74
58 259 230 345 319 41 43 82 86 91 95 37 38 180 225 206 268 15 27 30 50 33
53 12 9 85 145 118 220 64 145 90 216 112 308 l22 92 39 0 c22 0 39 3 39 6 0
11 -59 54 -75 54 -3 0 -5 -11 -5 -25 0 -22 -9 -30 -32 -26 -11 1 -10 -7 2 -29
8 -15 6 -17 -10 -13 -11 3 -20 13 -20 23 0 14 -14 18 -95 24 -125 8 -170 27
-196 78 -23 45 -20 71 13 113 l22 28 181 -7 c100 -3 237 -13 306 -21z"/>
<path d="M4470 4090 c15 -11 26 -15 29 -8 4 12 -17 28 -39 28 -10 0 -7 -7 10
-20z"/>
</g>
</svg>
